<?xml version="1.0" encoding="UTF-8"?>
<svg id="Layer_1" data-name="Layer 1" xmlns="http://www.w3.org/2000/svg" viewBox="0 0 393.57 153.69">
  <defs>
    <style>
      .cls-1 {
        fill: #a97c50;
      }
    </style>
  </defs>
  <g>
    <path class="cls-1" d="m255.54,95.57c-.2,12.66-3.91,22.35-11.12,29.06-8.93,8.32-24.87,15.24-47.82,20.73-22.65,5.45-46.61,8.22-71.89,8.32-19.02.1-37.33-1.29-54.94-4.16-14.28-2.32-23.61-4.67-28-7.04-5.55-2.17-11.7-5.78-18.46-10.82-3.03-2.27-8.78-6.96-17.25-14.07-4.04-3.38-6.05-6-6.05-7.87,0-.81.5-1.21,1.51-1.21,1.62,0,4.16,1.03,7.64,3.1,31.93,18.77,70.07,28.15,114.42,28.15,26.64,0,52.57-3.1,77.79-9.31,26.48-6.51,42.3-14.2,47.45-23.08.2-4.74-.73-9.31-2.8-13.7-2.22-4.04-4.44-8.05-6.66-12.03-.76-.96-1.14-2.07-1.14-3.33s.4-2.85,1.21-4.92c1.36-3.68,2.07-5.57,2.12-5.68,0-1.77.33-2.65.98-2.65,1.51,0,4.07,4.25,7.68,12.75,3.6,8.5,5.38,14.42,5.33,17.74Zm-69.78-54.57c-3.18,5.8-5.27,8.6-6.28,8.4-.91-.2-2.6-1.03-5.07-2.5-2.98-1.77-4.29-3.1-3.93-4.01.45-1.26,1.31-2.92,2.57-4.99,1.56-2.67,2.77-4.01,3.63-4.01.15.05.28.1.38.15,1.77.96,3.53,1.92,5.3,2.88,2.37,1.41,3.56,2.6,3.56,3.56,0,.2-.05.38-.15.53Z"/>
    <path class="cls-1" d="m301.63,96.71h-3.41c-.45,3.93-3.08,9.28-7.87,16.04-5.9,8.27-12.26,13.52-19.07,15.74-5.75-.61-12.13-1.79-19.14-3.56-6.81-1.72-10.22-2.98-10.22-3.78,0-.3.68-.45,2.04-.45,4.19.05,8.4.1,12.64.15,4.09,0,7.64-.45,10.67-1.36,4.09-1.21,9.19-4.43,15.32-9.65s9.9-9.6,11.31-13.13c-2.88.2-4.79.3-5.75.3-9.38,0-14.07-4.19-14.07-12.56,0-2.83,1.21-6.48,3.63-10.97,2.72-5.1,5.52-7.9,8.4-8.4,1.56-.25,3.81,1.62,6.73,5.6,3.03,4.24,5.12,8.73,6.28,13.47h2.5v12.56Zm-13.02-12.86c0-1.31-.4-2.65-1.21-4.01-.96-1.66-2.09-2.4-3.41-2.19-2.02.1-3.15,1.49-3.41,4.16,1.31,1.11,2.93,1.84,4.84,2.19,1.61.3,2.67.25,3.18-.15Z"/>
    <path class="cls-1" d="m335.75,96.71c-1.06,0-2.75-.43-5.07-1.29-2.93-1.11-5.35-2.45-7.26-4.01-.76-.65-2.22-3.18-4.39-7.57-3.23,4.74-5.02,7.29-5.37,7.64-3.33,3.48-7.34,5.22-12.03,5.22v-12.56c3.58,0,6.96-.68,10.14-2.04,2.02-.86,4.04-3.18,6.05-6.96,1.82-3.38,3.28-5.07,4.39-5.07.35,0,.76.13,1.21.38,0,.25-.05.93-.15,2.04-.1,1.11-.15,2.04-.15,2.8.15,1.21,1.74,2.95,4.77,5.22,3.18,2.42,5.8,3.63,7.87,3.63v12.56Zm-15.06-42.6c-1.06,3.28-1.69,5.2-1.89,5.75-.5,1.16-1.06,1.99-1.66,2.5-.15.1-.38.15-.68.15-1.61,0-3.68-.5-6.21-1.51-2.93-1.16-4.39-2.37-4.39-3.63,0-.35.15-.74.45-1.17.3-.43,1.16-2.28,2.57-5.56.96-2.17,1.94-3.25,2.95-3.25.35,0,.71.08,1.06.23,1.82.86,3.66,1.72,5.52,2.57,1.61.91,2.42,1.92,2.42,3.03,0,.25-.05.56-.15.91Z"/>
    <path class="cls-1" d="m377.15,96.71c-3.23-.15-7.01-.4-11.35-.76-6.76-1.41-11.4-3.38-13.92-5.9-5.65,4.24-11.02,6.46-16.12,6.66v-12.56c2.72-.3,6.13-1.59,10.22-3.86-.25-1.06-.38-2.35-.38-3.86,0-7.87,2.45-14.6,7.34-20.2,2.98-3.38,6.38-5.07,10.22-5.07,1.72,0,3.08,1.34,4.09,4.01.81,2.27,1.21,4.87,1.21,7.79,0,7.26-2.37,13.39-7.11,18.39,3.23,1.87,8.5,2.8,15.82,2.8v12.56Zm-27.17-84.15c.05.15.08.33.08.53,0,1.31-.43,3-1.29,5.07-.86,2.27-1.69,3.41-2.5,3.41-.71,0-2.37-.82-4.99-2.46-2.62-1.64-4.06-2.84-4.31-3.59-.4-1.26,1.11-4.46,4.54-9.61,2.72,1.11,5.55,3.33,8.48,6.66Zm12.26,59.48c.2-2.77-.15-5.07-1.06-6.89-.5-.81-1.03-1.61-1.59-2.42-4.04,1.51-6.86,4.57-8.48,9.16.1,1.31,1.64,3.33,4.62,6.05,1.01-.61,3.18-2.57,6.51-5.9Zm2.65-65.08c0,.86-.45,2.42-1.36,4.69-1.11,2.93-2.32,4.46-3.63,4.62-1.16-.05-2.72-.96-4.69-2.72-1.82-1.56-3.03-2.92-3.63-4.09.35-1.31,1.15-3.17,2.38-5.56,1.24-2.4,2.13-3.7,2.69-3.9.55,0,1.97.83,4.24,2.5,2.47,1.82,3.81,3.3,4.01,4.46Z"/>
    <path class="cls-1" d="m378.89,30.87c.2.86-.15,2.52-1.06,4.99-1.01,2.67-1.97,4.04-2.88,4.09-.76-.1-2.4-.93-4.92-2.5-2.67-1.66-4.09-2.88-4.24-3.63-.55-1.16.91-4.36,4.39-9.61,2.83,1.26,5.73,3.48,8.7,6.66Zm11.88,47.82c0,4.94-.98,9.51-2.95,13.7-1.36,2.88-4.92,4.31-10.67,4.31v-12.56c4.69,0,7.26-1.24,7.72-3.71-.61-1.71-1.72-3.71-3.33-5.98-1.31-1.82-2.09-3.71-2.35-5.68.66-2.17,1.79-5.04,3.41-8.63.2-.1.4-.15.61-.15,1.41,0,2.83,1.49,4.24,4.46,1.66,3.53,2.77,8.27,3.33,14.23Zm2.8-53.42c0,.91-.4,2.5-1.21,4.77-1.11,2.98-2.35,4.54-3.71,4.69-1.16-.05-2.75-.96-4.77-2.72-1.82-1.61-3.03-3.03-3.63-4.24.35-1.26,1.16-3.03,2.42-5.3,1.31-2.47,2.27-3.81,2.88-4.01.5,0,1.87.81,4.09,2.42,2.42,1.77,3.73,3.23,3.93,4.39Z"/>
  </g>
  <g>
    <path class="cls-1" d="m61.28,82.27h-.3c-.14-1.82-.67-2.99-1.59-3.53s-2.06-.8-3.41-.8h-5.54v23.4c0,1.98,1.01,3,3.03,3.06v.3h-8.87v-.3c.83-.03,1.54-.27,2.11-.73s.86-1.24.86-2.34v-23.4h-5.54c-1.35,0-2.48.27-3.4.8s-1.45,1.71-1.6,3.53h-.3v-6.81h.3c.2.32.38.55.53.7s.35.28.59.39.52.18.84.23.7.07,1.14.07h18.05c1.2,0,2.13-.46,2.8-1.38h.3v6.81Z"/>
    <path class="cls-1" d="m74.33,76.5l8.34,23.87c.44,1.24.86,2.13,1.25,2.69s.77.9,1.13,1.05.82.24,1.37.29v.3h-9.1v-.3c.93,0,1.65-.09,2.16-.26s.76-.66.76-1.44c0-.43-.12-1-.36-1.72-.05-.1-.08-.18-.08-.23l-2.48-7.4h-9.65l-2.21,6.85c-.3.93-.45,1.68-.45,2.25,0,.78.2,1.3.59,1.56s.95.39,1.66.39v.3h-6.55v-.3c.93-.09,1.68-.44,2.24-1.07s1.05-1.57,1.47-2.85l7.87-23.99h2.04Zm-6.34,15.85h8.87l-4.54-13.22h-.08l-4.26,13.22Z"/>
    <path class="cls-1" d="m117.5,105.05l.44.28c-1.21,1.39-2.4,2.52-3.56,3.39s-2.44,1.31-3.84,1.31c-.44,0-.88-.04-1.32-.11s-1-.23-1.67-.45c-.68-.23-1.46-.55-2.36-.98-1.55-.73-3.68-1.79-6.39-3.18-.03-.03-.18-.11-.45-.25-1.07-.33-1.85-.58-2.34-.77-.49-.18-1.12-.5-1.9-.95s-1.57-1.04-2.36-1.77-1.52-1.6-2.2-2.59c-.53-.77-.99-1.62-1.38-2.54s-.69-1.89-.89-2.88-.3-1.95-.3-2.87c0-2.76.69-5.27,2.06-7.52s3.19-4,5.46-5.26c2.26-1.25,4.69-1.88,7.29-1.88,1.99,0,3.89.38,5.69,1.14,1.8.76,3.37,1.81,4.71,3.17,1.35,1.36,2.39,2.93,3.13,4.71s1.12,3.68,1.12,5.68-.4,3.89-1.18,5.77-1.93,3.53-3.43,4.96c-.68.64-1.31,1.16-1.87,1.55s-1.12.71-1.66.96-1.09.47-1.67.65-1.14.34-1.68.46v.09c.08,0,.35.13.81.38,1.68.96,2.9,1.54,3.67,1.75s1.61.31,2.52.31c1.12,0,2.03-.18,2.73-.53.7-.35,1.57-.98,2.62-1.87.03,0,.07-.03.12-.09.06-.06.09-.09.11-.09Zm-4.41-14.13c0-2.77-.38-5.09-1.14-6.95s-1.72-3.3-2.89-4.32-2.38-1.73-3.64-2.14-2.49-.61-3.69-.61-2.5.21-3.77.62c-1.28.42-2.51,1.15-3.69,2.19-1.18,1.05-2.13,2.48-2.87,4.28s-1.1,4.01-1.1,6.61.33,4.72,1,6.56,1.58,3.31,2.74,4.44c.73.69,1.53,1.26,2.38,1.7s1.75.76,2.68.96c.93.2,1.84.29,2.73.29,1.6,0,3.1-.3,4.49-.89s2.57-1.44,3.53-2.55c2.14-2.5,3.22-5.9,3.22-10.2Z"/>
    <path class="cls-1" d="m148.74,76.84v.32c-.71.09-1.27.22-1.68.41s-.73.54-.95,1.08-.34,1.31-.34,2.32v24.44h-.19l-21.4-23.87v17.14c0,1.43.06,2.48.17,3.18s.28,1.19.49,1.49c.47.66,1.28,1.01,2.44,1.06v.3h-6.98v-.3c.78-.04,1.39-.2,1.82-.5.44-.3.74-.84.93-1.63.18-.79.27-1.98.27-3.57v-18.18l-.93-1.04c-.82-.93-1.48-1.52-1.97-1.77s-1.1-.43-1.84-.56v-.32h5.24l21.07,23.61v-17.99c0-1.35-.05-2.36-.16-3.03s-.39-1.2-.85-1.61c-.46-.4-1.18-.62-2.17-.66v-.32h7Z"/>
    <path class="cls-1" d="m178.89,104.71h-5.85v-4.62l-.09-.08c-.81,1.88-2.01,3.25-3.62,4.12-1.61.87-3.29,1.31-5.04,1.31-1.98,0-3.76-.47-5.34-1.42-1.58-.95-2.75-2.11-3.49-3.5-.53-.98-.86-2.01-1-3.07s-.21-2.17-.21-3.32v-13.87c0-.83-.17-1.53-.5-2.1s-1.13-.9-2.39-1v-.32h8.76v.32c-1.29.15-2.11.52-2.46,1.12s-.53,1.25-.53,1.99v13.64c0,2.77.28,4.82.85,6.15.61,1.41,1.51,2.52,2.73,3.31,1.21.79,2.59,1.19,4.12,1.19.64,0,1.41-.11,2.29-.34s1.71-.61,2.48-1.14c2.31-1.58,3.46-4.11,3.46-7.59v-15.23c0-.77-.18-1.45-.53-2.04s-1.19-.95-2.5-1.06v-.32h8.91v.32c-1.29.06-2.11.42-2.48,1.08s-.55,1.32-.55,1.99v21.11c0,.73.12,1.31.37,1.73.24.42.58.72,1.02.9.43.18.97.32,1.6.44v.3Z"/>
    <path class="cls-1" d="m210.48,76.84v.32c-.71.09-1.27.22-1.68.41s-.73.54-.95,1.08-.34,1.31-.34,2.32v24.44h-.19l-21.4-23.87v17.14c0,1.43.06,2.48.17,3.18s.28,1.19.49,1.49c.47.66,1.28,1.01,2.44,1.06v.3h-6.98v-.3c.78-.04,1.39-.2,1.82-.5.44-.3.74-.84.93-1.63.18-.79.27-1.98.27-3.57v-18.18l-.93-1.04c-.82-.93-1.48-1.52-1.97-1.77s-1.1-.43-1.84-.56v-.32h5.24l21.07,23.61v-17.99c0-1.35-.05-2.36-.16-3.03s-.39-1.2-.85-1.61c-.46-.4-1.18-.62-2.17-.66v-.32h7Z"/>
  </g>
</svg>